/* XPM */
static char *door[] = {
/* columns rows colors chars-per-pixel */
"56 64 103 2 ",
"   c #473531",
".  c #4B3731",
"X  c #4E3B35",
"o  c #513D35",
"O  c #554037",
"+  c #564138",
"@  c #5E483C",
"#  c #644C3E",
"$  c #684F3F",
"%  c #6A503F",
"&  c #654E40",
"*  c #665043",
"=  c #6C5341",
"-  c #715643",
";  c #755A45",
":  c #795D47",
">  c #76604F",
",  c #7D6149",
"<  c #766051",
"1  c #7C6553",
"2  c #7D6959",
"3  c #86684E",
"4  c #896B4F",
"5  c #816650",
"6  c #846952",
"7  c #8C6E51",
"8  c #856D59",
"9  c #8E7053",
"0  c #87715D",
"q  c #8B725B",
"w  c #947354",
"e  c #987756",
"r  c #9A7857",
"t  c #93765A",
"y  c #97795B",
"u  c #A17E5B",
"i  c #837162",
"p  c #8A7664",
"a  c #927962",
"s  c #9A7F64",
"d  c #877D72",
"f  c #9B8065",
"g  c #96826E",
"h  c #9F876D",
"j  c #8F8071",
"k  c #89817D",
"l  c #938273",
"z  c #948678",
"x  c #93887B",
"c  c #9A8C7D",
"v  c #9F907E",
"b  c #A38668",
"n  c #A5886B",
"m  c #968B81",
"M  c #99938A",
"N  c #A49684",
"B  c #A29A8E",
"V  c #A89E8E",
"C  c #A19E99",
"Z  c #ADA597",
"A  c #ACA598",
"S  c #ABA99F",
"D  c #B2AD9F",
"F  c #ACA7A0",
"G  c #B2ABA1",
"H  c #B0AFAD",
"J  c #B4B1A5",
"K  c #BBB4A6",
"L  c #B6B5AA",
"P  c #BAB7AA",
"I  c #BDBAAC",
"U  c #B4BAB2",
"Y  c #BCBDB3",
"T  c #BDBDB9",
"R  c #C2BDAE",
"E  c #C0BEB4",
"W  c #BEC1B7",
"Q  c #BEC2B9",
"!  c #C2C1B5",
"~  c #C3C5BB",
"^  c #C5C9BF",
"/  c #C8C8BD",
"(  c #C4C7C5",
")  c #C6CAC1",
"_  c #CACEC3",
"`  c #C3C7C8",
"'  c #C7CBC9",
"]  c #CACECA",
"[  c #CDD0C6",
"{  c #CED2CB",
"}  c #D0D4CE",
"|  c #CFD6D6",
" . c #D1D7D3",
".. c #D2D8D5",
"X. c #D4DBDC",
"o. c #D8DFDE",
"O. c #D7DEE0",
"+. c #D8DFE2",
"@. c #D8E0E3",
"#. c #DEE8EB",
"$. c #DFE9ED",
"%. c #E0EAEF",
"&. c #E1EBF0",
/* pixels */
"U U U U U U U U U U U U Y ~ ^ ~ _ [ [ _ ) [ [ [ [ [ [ [ [ { [ [ { { { [ [ [ [ [ [ [ [ { { [ _ ^ _ ^ Q U U U U U ",
"U U U U U U U U U U U ~ _ [ [ ^ [ [ [ _ ) [ [ [ { [ { {  .X.....X... . . .} { { { { [ } { [ [ [ { [ _ _ ^ Y U U ",
"U U U U U U U U W ~ ~ _ [ [ _ ^ _ [ [ _ ] ....X.X.X. ...X.X.X.X.X.X.X.X.X.X.X.X.X.X.X.X.X... .{  .{ [ [ _ ) ) Q ",
"U U U U U U Y ~ _ [ ^ _ [ { [ ^ [ { { { | X.X. .{ { [ [ { { }  ...X.X.X.X.X.X.X.X.X.X.O.X.X.X.X.X.X.....} ) _ _ ",
"U U U U U Q ^ [ [ [ ^ _ } X. .) { X.X.X. . ._ _ _ [ [ [ [ { [ [ [ {  .X.X.X.X.X.X.X.X.+.O.X.X.X.X.X.X.X.X.} { [ ",
"U U U Y ) _ _ [ [ [ ) _ X.X.X.' X.X.X.} _ [ [ [ [ _ ! ! ! ! ~ [ [ [ [ }  .X.X.X.X.X.X.@.O.X.X.X.X.X.X.X.X.X.X. .",
"U U W _ [ [ [ [ [ } ] | X.X.X.'  .{ _ [ [ [ / D v p 1 5 6 6 2 l N E {  . ...X.+.O.X.X.@.@.O.X.X.O.X.X.X.X.X.X.X.",
"U Y _ [ [ [ { [ { X.| | X.X.X.' _ _ _ [ / Z p : : : # % 4 4 4 = - 1 c K ....X.$.%.@.@.@.&.%.$.@.@.@.X.X.X.X.X.X.",
"Q ) [ [ [ { .. ...X.{ | X.X.X._ _ [ [ ! j ; 3 4 4 , - ; , w 7 3 w : ; , G | X.X.$.&.%.%.&.&.&.%.$.%.$.$.@.X.X.X.",
") _ [ [ { ..X.X.X.X.|  .X.X.{ _ [ [ L p , - 7 7 : # # @ @ # @ # w r r 7 5 z _ X.O.$.&.&.&.&.&.&.&.&.&.&.$.$.@.X.",
"[ [ [ [  .X.X.X.X.X...X.X..._ _ [ Y i 3 7 3 ; # @ # : : , , ; # = ; w u r : l  .X.+.%.&.&.&.&.&.&.&.&.&.%.$.%.@.",
"[ [ [ [ ..X.X.X.X.X...X.X.{ _ [ ) l 3 w 3 # @ = ; ; w 4 w w w 4 7 = # 7 u r 3 G X.X.$.&.&.&.&.&.&.&.&.&.%.$.&.&.",
"[ [ [ { X.X.X.X.X.X...X...[ [ [ B 3 e w & # ; ; : ; 3 w r u w 7 r w = @ 7 u r q T X.X.$.&.&.&.&.&.&.&.&.&.%.%.&.",
"[ [ [ ..X.X.X.X.X.X...X.{ _ [ W p w r : = , ; ; 3 ; , w w u r w w w 3 = # w u w c X.X.@.&.&.&.&.&.&.&.&.&.%.&.&.",
"[ [ { X.X.X.@.X.X.X....._ _ [ V w u 7 # , - - ; : ; 3 7 e u r r 9 w w , # : u r t ( X.@.&.&.&.&.&.&.&.&.&.&.&.&.",
"{ { ..X.X.X.@.X.X.X... ._ [ _ l 4 w - - , = : ; = = , 4 r u r r 9 w w , = = w u w F X.O.%.&.&.&.&.&.&.&.&.&.&.&.",
"{ { X.X.X.X.@.X.X.X...{ ) [ Y 2 7 7 = : 3 : 3 : = = 3 3 3 e r w 7 7 3 3 3 # : u w m X.X.$.&.&.&.&.&.&.&.&.&.&.&.",
"{  .X.X.X.X.@.X.X.X...{ _ [ I 7 w 3 ; , 3 3 3 3 ; - 4 4 3 r r w 9 3 3 w 7 = = r w h { X.@.&.&.&.&.&.&.&.&.&.&.&.",
"} ..X.X.X.X.@.X.X.X..._ _ { I , & @ : : , 3 7 4 3 ; 3 ; 3 r r w 7 3 4 w w : # ; 3 8 ' X.@.&.&.&.&.&.&.&.&.&.&.&.",
" .X.X.X.X.X.@.X.X.X. .^ _ { J , # @ : , 3 3 3 3 3 ; 7 , 9 u r w 7 3 w 7 7 ; # ; 4 8 ` X.@.&.&.&.&.&.&.&.&.&.&.&.",
"X.X.X.X.X.X.@.X.X.X. .^ _ [ J 7 w ; : 3 3 , 3 3 3 ; 7 3 7 u u r 7 3 7 3 3 ; # w r s ] X.@.&.&.&.&.&.&.&.&.&.&.&.",
"X.X.X.X.X.X.@.X.X.X. .) [ [ G w e ; : 3 , ; 3 4 3 ; 7 3 w u u u 7 3 7 : 3 , $ w u b { X.@.&.&.&.&.&.&.&.&.&.&.&.",
"X.X.X.X.X.X.+.X.X.X. .) _ [ c 7 r ; ; , 3 - , 3 3 ; 3 w w u r r 7 , 3 , 3 3 = w u n  .X.+.&.&.&.&.&.&.&.&.&.&.&.",
"X.X.X.X.X.X.+.X.X.X. .^ _ [ x 9 r ; ; 3 7 , , , 3 ; 3 w r r r r w 3 7 : , ; # w u n  .X.@.&.&.&.&.&.&.&.&.&.&.&.",
"X.X.X.X.X.X.@.X.X.X..._ _ [ M a r ; - 3 r 4 , 3 7 ; 7 7 w r 4 w 7 3 w 7 , ; # w u b { O.@.&.&.&.&.&.&.&.&.&.&.&.",
"X.X.X.X.X.X.@.X.X.X..._ _ [ S q r ; , 4 r 4 , 3 3 ; w 7 9 e , 9 7 3 4 e 3 = # w u f { X.@.&.&.&.&.&.&.&.&.&.&.&.",
"X.X.X.X.X.X.@.X.X.X.X._ _ [ P 9 u ; ; 7 e 4 : : , = 3 7 w w 7 r e 4 4 w 3 = = 7 e a ] X.@.&.&.&.&.&.&.&.&.&.&.&.",
"X.X.X.X.X.X.@.X.X.X.X.) _ [ I t u ; ; 9 r 4 : , 3 ; 3 7 w u u u r 7 4 7 3 - # 7 w q ' X.@.&.&.&.&.&.&.&.&.&.&.&.",
"X.X.X.X.X.X.@.X.X.X.X.[ [ { I r u : ; 7 r 7 3 7 3 ; 3 w r u u u w 3 3 w 3 ; # w r q ] X.@.&.&.&.&.&.&.&.&.&.&.&.",
"X.X.X.X.X.X.@.X.X.X.X.) _ { I y u ; = 7 r 4 , 3 3 = 3 w r u u u w 3 3 e ; 3 ; 7 7 @ C X.@.&.&.&.&.&.&.&.&.&.&.&.",
"X.X.X.X.X.X.@.X.X.X.X.) _ { I t r ; : 3 3 , ; 3 3 = 3 r r r r u w , 3 4 @ # @ # @ . k ..@.&.&.&.&.&.&.&.&.&.&.&.",
"X.X.X.X.X.O.@.X.X.X.X.) _ [ I t r : , 7 9 3 ; , 3 = 3 w r r e r w , 3 3 + # = 1 6 & H X.X.&.&.&.&.&.&.&.&.&.&.&.",
"X.X.X.X.X.X.@.X.X.X.X._ _ [ Y t r : ; 4 w 3 : 3 3 = ; 7 w w r r w , 4 w # @ @ 7 r q ) X.@.&.&.&.&.&.&.&.&.&.&.&.",
"X.X.X.X.X.X.@.X.X.X.X._ _ [ E y r - : 7 w 3 : 3 3 = : w w 7 r r 7 , 4 w 3 ; = w r q ' X.@.&.&.&.&.&.&.&.&.&.&.&.",
"X.X.X.X.X.X.@.X.X.X.X._ _ [ E y r = : 7 9 , : 4 7 , , w t 3 w r 7 3 4 w w 3 = w e 8 ' X.@.&.&.&.&.&.&.&.&.&.&.&.",
"X.X.X.X.X.X.@.X.X.X.X.) _ [ E t w = ; 4 w 3 : 4 4 ; : 7 r q w r w , 3 w w 3 = w e 8 ' X.o.&.&.&.&.&.&.&.&.&.&.&.",
"X.X.X.X.X.X.O.X.X.X.X.) _ [ E t u ; ; 3 9 3 : 3 3 ; , 4 e r w r 7 , 7 r w , = w w q ] X.o.&.&.&.&.&.&.&.&.&.&.&.",
"X.X.X.X.X.X.O.X.X.X..._ _ [ E r u ; - 4 4 : : 3 3 - : 9 u u w r 4 , 4 e 4 ; = w w 8 _ ..X.&.&.&.&.&.&.&.&.&.&.&.",
"X.X.X.X.X.X.X.X.X.X.X._ _ [ Y r u ; - 4 4 ; ; 4 7 , 3 4 r u w r 7 3 : 3 3 - = 7 4 8 ~  .X.&.&.&.&.&.&.&.&.&.&.&.",
"X.X.X.X.X.X.X.X.X.X.X._ ) [ ! r w ; ; , ; = # ; - = = : 3 , , ; , : ; , , = # 7 4 8 _  .X.&.&.&.&.&.&.&.&.&.&.&.",
"X.X.X.X.X.X.X.X.X.X.X._ _ [ ~ r 3 : 3 3 3 , ; : , , , 3 3 3 3 3 3 3 3 3 , 3 3 3 ; 1 ]  .X.%.%.%.&.&.&.&.&.&.&.&.",
"X.X.X.X.X.X.X.X.X.X.X._ ) [ ~ t 7 , , : 3 3 ; ; 3 3 , ; : 3 3 3 , 3 3 7 : - # + o < _ { ..&.$.$.&.&.&.&.&.&.&.&.",
"X.X.X.X.X.X.X.X.X.X.X._ ) [ E 9 3 , 3 3 9 3 3 3 , 4 3 : : ; : , : : 3 3 # @ O X   1 / { ..$.$.$.&.&.&.&.&.&.&.&.",
"X.X.X.X.X.X.X.X.X.X.X.) ) [ E 9 4 : , 3 w 7 9 3 3 4 7 3 3 3 3 3 3 3 , : : 3 , : O : ~ { ..%.&.&.&.&.&.&.&.&.&.&.",
"X.X.X.X.X.X.X.X.X.X.X._ ^ [ Y t e # X # = @ @ - # # = # # & @ # = # @ # # # = 3 # < ~ { X.$.@.@.%.&.&.&.&.&.&.&.",
"X.X.X.X.X.X.X.X.X.X.X.) ) [ Y 9 4 = = ; 3 = # ; = = - = # = # # % % = = = @ = 3 ; < ~ {  .O.X.X.%.&.&.&.%.&.&.&.",
"X. .X.X.X.X.X.X.X.X...Q ~ [ E 9 3 = , 3 w : - 4 : 3 , 3 ; : ; , 3 3 , , ; # ; 3 % < ~ [ { X.X.X.%.%.&.&.%.%.&.&.",
"X.X.X.X.X.X.X.X.X.X.X.Q ~ [ I 6 3 = , 4 r 4 = : , , ; ; : 3 : 3 4 7 3 3 , # ; 3 $ < ! _ _ X.X.X.$.$.$.%.&.&.&.%.",
"X.X.X.X.X.X.X.X.X.X.X.~ ^ [ P : 3 = 3 4 7 3 ; , , : : 3 3 7 3 4 7 w 3 4 , = ; 3 ; : ! {  .X.X.X.$.$.@.@.$.&.$.$.",
"X.X.X.X.X.X.X.X.X.X. .~ ^ [ P , : = 3 3 , 7 : 3 3 ; ; 3 3 4 3 3 3 w 3 3 , = ; 3 ; : W [ ..X.X.X.$.@.X.@.$.$.$.$.",
"X.X.X.X.X.X.X.X.X.X. .~ ^ [ J : 3 = , 3 : 3 : , : ; ; 4 3 , 3 3 7 7 3 4 3 = - 3 : : W [ { X.X.O.@.X.X.X.@.@.$.$.",
"X.X.X.X.X.X.X.X.X.X. .~ ^ [ P , 3 ; , 3 , 3 : 3 3 , ; 7 3 , , 3 7 3 4 3 , # # 3 : : ! [  .X.X.O.@.X.X.X.O.@.X.X.",
"X.X.X.X.X.X.X.X.X.X. .W ~ [ P 6 7 ; , 3 3 3 : , ; ; - 7 3 , , 3 4 3 3 , , # # 3 : > ! [ { X.X.X.@.X.X.X.O.X.O.O.",
"X.X.X.X.X.X.X.X.X.X.} Q ~ [ P 6 3 = - 3 , : ; = ; : : 3 , : ; ; 3 , 3 3 ; @ # 3 - : ! _ _ X.X.X.@.X.X.X.O.X.X.X.",
"X.X.X.X.X.X.X.X.X.X.{ W ~ [ P 6 3 = % : ; ; - - ; : 3 3 : = ; , 3 3 3 3 : @ # 3 - : ! _ ] X.X.X.X.X.X.X.@.X.X.X.",
"X.X.X.X.X.X.X.X.X.X.{ W ~ [ I 6 3 = = ; = ; ; = ; : , : ; - ; 3 3 : 3 , - @ # ; = : Y _ ] X.X.X.X.X.X.X.@.X.X.X.",
"X.X.X.X.X.X.X.X.X.X.{ ~ ^ [ I 6 : = - , ; : , : 3 3 ; - ; % = : : ; ; , - # # ; ; 1 ! / E X.X.X.X.X.X.X.@.X.X.X.",
"X. . .X.X.X.X.X.X...[ Q ~ [ R 9 : = = ; ; ; , : ; 3 ; - ; # = : ; = ; : - # # ; : 1 ! _ ~ X.X.X.X.X.X.X.+.X.X.X.",
" .{ } X.X.X.X.X.X. .{ Y Y _ _ g : = % = $ % = # # = # # = O @ = = # # @ # @ @ = : p ^ _ _ X.X.O.O.X.@.@.@.@.X.X.",
"{ { { } } { }  .} } { P I [ { l - # # = $ % $ # @ @ @ # # @ # # % # # # # # # = = d ) _ _ { ....................",
"[ [ [ [ [ [ [ [ [ [ [ Y R [ [ l $ @ # # % = = = = = # % = = = - = - ; ; , 3 3 = # i ~ _ ^ _ [ [ [ [ [ [ _ _ [ [ ",
"[ [ [ [ [ [ [ [ [ [ [ Y ! [ U 2 % @ # % % % = = = # # % = = = = = = - ; - ; 3 # # 0 ! _ ^ [ [ [ [ [ [ [ [ [ [ [ ",
"_ [ [ [ [ [ [ [ [ [ [ I R { S = = @ @ % % = = = = % @ % # = % @ $ % = = # = ; # # 1 ~ [ _ [ [ [ [ [ _ _ [ _ _ [ ",
"~ ^ ^ ^ ^ ^ ^ _ _ _ _ L A _ J * # % ; - ; 3 3 : 3 4 = % ; ; ; # # % % = = @ @ O # i ) _ ! [ [ [ _ _ [ [ [ _ _ [ "
};
