/* XPM */
static char *item[] = {
/* columns rows colors chars-per-pixel */
"64 64 118 2 ",
"   c #FF1F23",
".  c #FF2822",
"X  c #FD232A",
"o  c #FF2C2D",
"O  c #EF2533",
"+  c #F22432",
"@  c #FF2E33",
"#  c #FA2F38",
"$  c #EE313F",
"%  c #FF3036",
"&  c #F0313E",
"*  c #F8303A",
"=  c #AF3C67",
"-  c #B53B64",
";  c #DF344A",
":  c #C93757",
">  c #EF3240",
",  c #E43649",
"<  c #F13341",
"1  c #964177",
"2  c #F75C62",
"3  c #F85C61",
"4  c #EB717C",
"5  c #FB797C",
"6  c #2E349C",
"7  c #31379D",
"8  c #32389C",
"9  c #373CA1",
"0  c #3A3FA2",
"q  c #3D43A3",
"w  c #3352B6",
"e  c #574C9F",
"r  c #584B9E",
"t  c #644997",
"y  c #4146A5",
"u  c #444AA7",
"i  c #4C4DA6",
"p  c #454CA9",
"a  c #494EA9",
"s  c #554CA1",
"d  c #4B51A6",
"f  c #4150AE",
"g  c #4C51AA",
"h  c #5750A3",
"j  c #5156AB",
"k  c #555AAC",
"l  c #585DAD",
"z  c #5B60AE",
"x  c #5E62B0",
"c  c #6065AE",
"v  c #6368B0",
"b  c #7276B9",
"n  c #824484",
"m  c #7E82BE",
"M  c #8084BF",
"N  c #8387C0",
"B  c #8589C2",
"V  c #8A8DC4",
"C  c #8E91C4",
"Z  c #9093C5",
"A  c #9A9DCB",
"S  c #AEB1D4",
"D  c #BBBDDB",
"F  c #F8BEC0",
"G  c #BFC1DD",
"H  c #C3C5DF",
"J  c #C2C4DF",
"K  c #C3C5E0",
"L  c #C4C6E0",
"P  c #C3C5E0",
"I  c #C7C9E1",
"U  c #C8C9E2",
"Y  c #C9CBE2",
"T  c #CACBE2",
"R  c #CACCE2",
"E  c #CACCE3",
"W  c #CCCDE4",
"Q  c #C9CBE2",
"!  c #D5D7E8",
"~  c #D6D7E8",
"^  c #D5D7E8",
"/  c #D6D8E9",
"(  c #D6D8E9",
")  c #E5E6F0",
"_  c #E5E6F0",
"`  c #EAEBF3",
"'  c #EDEEF5",
"]  c #F0F1F6",
"[  c #F1F1F7",
"{  c #F1F2F7",
"}  c #F2F2F7",
"|  c #F2F3F7",
" . c #F3F3F7",
".. c #F1F2F7",
"X. c #F2F3F8",
"o. c #F3F3F8",
"O. c #F3F4F8",
"+. c #F4F4F8",
"@. c #F4F5F9",
"#. c #F7F7FA",
"$. c #F3F3F8",
"%. c #F3F8FD",
"&. c #FBFBFB",
"*. c #FAFAFC",
"=. c #FBFBFC",
"-. c #FAFAFD",
";. c #FDFDFC",
":. c #FCFCFD",
">. c #FDFDFD",
",. c #FDFEFD",
"<. c #FEFEFD",
"1. c #FCFCFE",
"2. c #FCFDFE",
"3. c #FDFDFE",
"4. c #FEFEFE",
"5. c #FEFEFF",
"6. c #FFFFFF",
"7. c #FFFFFF",
/* pixels */
"6.6.6.6.6.6.6.6.6.6.6.6.6.6.6.6.6.6.6.6.6.6.6.6.6.6.6.6.6.6.6.6.6.6.6.6.6.6.6.6.6.6.6.6.6.6.6.6.6.6.6.6.6.6.6.6.6.6.6.6.6.6.6.6.",
"6.6.6.6.6.6.6.6.6.6.6.6.6.6.6.6.6.6.6.6.6.6.6.6.6.6.6.6.6.6.6.6.6.6.6.6.6.6.6.6.6.6.6.6.6.6.6.6.6.6.6.6.6.6.6.6.6.6.6.6.6.6.6.6.",
"6.6.6.6.6.6.6.6.6.6.6.6.6.6.6.6.6.6.6.6.6.6.6.6.6.6.6.6.6.6.6.6.6.6.6.6.6.6.6.6.6.6.6.6.6.6.6.6.6.6.6.6.6.6.6.6.6.6.6.6.6.6.6.6.",
"6.6.6.6.6.6.6.6.6.6.6.6.6.6.6.6.6.6.6.6.6.6.6.6.6.6.6.6.6.6.6.6.6.6.6.6.6.6.6.6.6.6.6.6.6.6.6.6.6.6.6.6.6.6.6.6.6.6.6.6.6.6.6.6.",
"6.6.6.6.6.6.6.6.6.6.6.6.6.6.6.6.6.6.6.6.6.6.6.6.6.6.6.6.6.6.6.6.6.6.6.6.6.6.6.6.6.6.6.6.6.6.6.6.6.6.6.6.6.6.6.6.6.6.6.6.6.6.6.6.",
"6.6.6.6.6.6.6.6.6.6.6.6.6.6.6.6.6.6.6.6.6.6.6.6.6.6.6.6.6.6.6.6.6.6.6.6.6.6.6.6.6.6.6.6.6.6.6.6.6.6.6.6.6.6.6.6.6.6.6.6.6.6.6.6.",
"6.6.6.6.6.6.6.6.6.6.6.6.6.6.6.6.6.6.6.6.6.6.6.6.6.6.6.6.6.6.6.6.6.6.6.6.6.6.6.6.6.6.6.6.6.6.6.6.6.6.6.6.6.6.6.6.6.6.6.6.6.6.6.6.",
"6.6.6.6.6.6.6.6.6.6.6.6.6.6.6.6.#.#.#.#.} } } #.6.6.6.6.6.6.6.6.6.6.6.6.6.6.6.6.#.#.#.#.} } } #.6.6.6.6.6.6.6.6.6.6.6.6.6.6.6.6.",
"6.6.6.6.6.6.6.6.6.6.6.6.6.6.6.#.v k l l l k j c } 6.6.6.6.6.6.6.6.6.6.6.6.6.6.} c j k l k l k c #.6.6.6.6.6.6.6.6.6.6.6.6.6.6.6.",
"6.6.6.6.6.6.6.6.6.6.6.6.6.6.6.} a 9 q q 0 u u k 6.6.6.6.6.6.6.6.6.6.6.6.6.6.6.6.k p u 0 0 q 9 u } 6.6.6.6.6.6.6.6.6.6.6.6.6.6.6.",
"6.6.6.6.6.6.6.6.6.6.6.6.6.6.6.#.C B B B V x u j D J ~ 6.6.~ G J L G / 6.6.~ J D k u x V B B B C #.6.6.6.6.6.6.6.6.6.6.6.6.6.6.6.",
"6.6.6.6.6.6.6.6.6.6.6.6.6.6.6.6.6.6.6.6.6.V q g y 8 m 6.6.m 8 y y 8 m 6.6.m 8 y g y V 6.6.6.6.6.6.6.6.6.6.6.6.6.6.6.6.6.6.6.6.6.",
"6.6.6.6.6.6.6.6.6.6.6.6.6.6.6.6.6.6.6.6.6.m 8 y g y V 6.6.V q g g q V 6.6.V q g y 8 m 6.6.6.6.6.6.6.6.6.6.6.6.6.6.6.6.6.6.6.6.6.",
"6.6.6.6.6.6.6.6.6.6.6.6.6.6.6.6.6.6.6.6.6.~ G D j u x V V x u a a u x V V x u j D G ~ 6.6.6.6.6.6.6.6.6.6.6.6.6.6.6.6.6.6.6.6.6.",
"6.6.6.6.6.6.6.6.6.6.6.6.6.6.6.6.6.6.6.6.6.6.6.6.k p p q q u a a a a u q q p p k 6.6.6.6.6.6.6.6.6.6.6.6.6.6.6.6.6.6.6.6.6.6.6.6.",
"6.6.6.6.6.#.} #.#.#.#.#.} } } #.6.6.6.6.6.#.} ) k p g g g a a a a a a g g a p k ) #.#.6.6.6.6.6.#.#.#.#.} } } #.#.} #.6.6.6.6.6.",
"6.6.6.6.6.C d l k k k k k k j c } 6.6.6.6.C d k a a a a a a a a a a a a a a a a k d C 6.6.6.6.} c j k k k k k k l d C 6.6.6.6.6.",
"6.6.6.6.6.V 0 a p p p p p p u k 6.6.6.6.6.B q a a a a a a a a a a a a a a a a a a q N 6.6.6.6.6.k u p p p p p p a 0 B 6.6.6.6.6.",
"6.6.` D U b y g a a a a a a a j D J ~ 6.6.B q g a a a a a a a a a a a a a a a a g q B 6.6.~ J D j a a a a a a a g u b U D ` 6.6.",
"6.6.D 8 y u a a a a a a a a a a y 8 m 6.6.B q g a a a g g a a a a a a g g a a a g q B 6.6.m 8 y a a a a a a a a a a u q 8 D 6.6.",
"6.6.U q g a a a a a a a a a a a g q V 6.6.V q g a a u q q u a a a a u q q u a a g q V 6.6.V q g a a a a a a a a a a a g y U 6.6.",
"B V b u g a a a a a a a a a a a a u x V V x u a g y b U U b y g g y b U U b y g a u x V V x u a a a a a a a a a a a a g u b V B ",
"q q y p p a a a a a a a a a a a a a u q q u a a g q V 6.6.V q g g q V 6.6.V q g a a u q q u a a a a a a a a a a a a a p p y q q ",
"g g g k k g a a a a a a a a a a a a a g g a a a g q B 6.6.B q g g q B 6.6.B q g a a a g g a a a a a a a a a a a a a g k k g g g ",
"g y N 6.6.N y g a a a a a a a a a a a a a a a a g q B 6.6.B q g g q B 6.6.B q g a a a a a a a a a a a a a a a a g y N 6.6.N y g ",
"y 8 m 6.6.m 8 y a a a a a a a a a a a a a a a a g q V 6.6.V q g g q V 6.6.V q g a a a a a a a a a a a a a a a a y 8 m 6.6.m 8 y ",
"V m S 6.6.S m N g a a a a a a a a a a a a a a a g y b U U b y g g y b U U b y g a a a a a a a a a a a a a a a g N m S 6.6.S m V ",
"6.6.6.6.6.6.6.6.k p g g g g g g a a a a a a a a a a u q q u a a a a u q q u a a a a a a a a a a g g g g g g p k 6.6.6.6.6.6.6.6.",
"6.6.6.6.6.6.6.} k p u q q q q q a a a a a p f f a a a g g a a a a a a g g a a a p f p a a a a a q q q q q u p k } 6.6.6.6.6.6.6.",
"6.6.6.6.6.6.6.#.l q b U J J L D j p a a p 1 : - s a a a a a a a a a a a a a a s - : 1 p a a p j D L J J U b q l } 6.6.6.6.6.6.6.",
"6.6.6.6.6.6.6.} k 9 V 6.6.6.6.6.k p a a f : . # s f p p p p p p p p p p p p f s # . : f a a p k 6.6.6.6.6.V 9 k } 6.6.6.6.6.6.6.",
"6.6.6.6.6.6.6.#.v a C 6.6.6.6.} k p a a f - # ; t e h k k h e e e e h k k h s t ; # - f a a p k } 6.6.6.6.C a v #.6.6.6.6.6.6.6.",
"6.6.6.6.6.6.6.6.#.} #.6.6.6.6.#.k p a a a s s t , + 4 %.%.4 O < < + 4 %.%.4 + , t s s a a a p k } 6.6.6.6.#.} #.6.6.6.6.6.6.6.6.",
"6.6.6.6.6.6.6.6.6.6.6.6.6.6.6.#.k p a a a a f s <   5 6.6.5   % %   5 6.6.5   & s f a a a a p k } 6.6.6.6.6.6.6.6.6.6.6.6.6.6.6.",
"6.6.6.6.6.6.6.6.6.6.6.6.6.6.6.#.k p a a a a p e > X 2 F F 3 X % % X 3 F F 2 X > e p a a a a p k } 6.6.6.6.6.6.6.6.6.6.6.6.6.6.6.",
"6.6.6.6.6.6.6.6.6.6.6.6.6.6.6.#.l a g a a a p e $ @ @ X X @ @ @ @ @ @ X X @ @ $ e p a a a g a k } 6.6.6.6.6.6.6.6.6.6.6.6.6.6.6.",
"6.6.6.6.6.6.6.6.6.6.6.6.6.6.6.} d 0 u a a a p e * o @ % % @ @ @ @ @ @ % % @ o * e p a a a u 0 d } 6.6.6.6.6.6.6.6.6.6.6.6.6.6.6.",
"6.6.6.6.6.6.6.#.C m S 6.6.6.6.6.J U A y g a a a n n = @ @ @ @ @ @ @ @ @ @ = n n a a a g y A U J 6.6.6.6.6.S m Z #.6.6.6.6.6.6.6.",
"6.6.6.6.6.6.6.} d 6 M 6.6.6.6.6.6.6.U q g a a a p w n o @ @ @ @ @ @ @ @ o n w f a a a g q U 6.6.6.6.6.6.6.M 6 d } 6.6.6.6.6.6.6.",
"6.6.6.6.6.6.6.#.l q N 6.] 6.6.6.` 6.D q g a a a a p n # $ $ & & & & & > * n p a a a a g q D 6.` 6.6.6.} 6.B q l } 6.6.6.6.6.6.6.",
"6.6.6.6.6.6.6.#.k p g l d J 6.` c k j g g a a a a a a e e e e e e e e e e a a a a a a g g k k c ` 6.J d l g p k } 6.6.6.6.6.6.6.",
"6.6.6.6.6.6.6.#.k p a a 0 U 6.6.k u u q q u a a a a a p p p p p p p p p p a a a a a u q q u u k 6.6.U q a a p k } 6.6.6.6.6.6.6.",
"6.6.6.6.6.6.6.#.k p a g u A U D k u x V V x u a a a a a a a a a a a a a a a a a a u x V V x u k D U A u g a p k } 6.6.6.6.6.6.6.",
"6.6.6.6.6.6.6.#.k a g a a y q q g y V 6.6.V q g g g g g g a a a g g g g g g g g g y V 6.6.V q g q q y a a g a l #.6.6.6.6.6.6.6.",
"6.6.6.6.6.6.6.} d q u a a g g g y 8 m 6.6.m 8 y q q q q q u a a q q q q q q q q y 8 m 6.6.m 8 y a g g a a u 0 d } 6.6.6.6.6.6.6.",
"6.6.6.6.6.6.6.6.J U A u g a p j D G ~ 6.6.~ G J J J J J U b q k D L J J J J J J J G ~ 6.6.~ G D j p a g u A U J 6.6.6.6.6.6.6.6.",
"6.6.6.6.6.6.6.6.6.6.U 0 a a p k 6.6.6.6.6.6.6.6.6.6.6.6.6.V 0 l 6.6.6.6.6.6.6.6.6.6.6.6.6.6.6.6.k p a a 0 U 6.6.6.6.6.6.6.6.6.6.",
"6.6.6.6.6.6.6.6.6.6.J d l g p k _ } #.6.6.6.6.6.6.6.6.6.6.B q k _ } #.6.6.6.6.6.6.6.6.} #.} #.) k p g l d J 6.6.6.6.6.6.6.6.6.6.",
"6.6.6.6.6.6.6.6.6.6.6.} 6.N y g l g Z 6.6.6.6.6.6.6.6.6.6.V y g k d C 6.6.6.6.6.6.6.J d k k l k g q N 6.} 6.6.6.6.6.6.6.6.6.6.6.",
"6.6.6.6.6.6.6.6.6.6.6.6.6.m 8 y q 6 m 6.6.6.6.6.6.6.6.6.6.m 8 y a 0 V 6.6.6.6.6.6.6.U q a q 0 q g q B 6.6.6.6.6.6.6.6.6.6.6.6.6.",
"6.6.6.6.6.6.6.6.6.6.6.6.6.S m B V m S 6.6.6.6.6.6.6.6.6.6.S m N j y b U D ` 6.6.J U A u a b V N j q B 6.6.6.6.6.6.6.6.6.6.6.6.6.",
"6.6.6.6.6.6.6.6.6.6.6.6.6.6.6.6.6.6.6.6.6.6.6.6.6.6.6.6.6.6.6.6.l a a q 8 D 6.` d 0 u g y U 6.6.z q V 6.6.6.6.6.6.6.6.6.6.6.6.6.",
"6.6.6.6.6.6.6.6.6.6.6.6.6.6.6.6.6.6.6.6.6.6.6.6.6.6.6.6.6.6.6.} d 0 u g q U 6.6.l a a q 8 D 6.` d 6 m 6.6.6.6.6.6.6.6.6.6.6.6.6.",
"6.6.6.6.6.6.6.6.6.6.6.6.6.6.6.6.6.6.6.6.6.6.6.6.6.6.6.6.6.6.6.6.J U A u a b V N j y b U D ` 6.6.U D / 6.6.6.6.6.6.6.6.6.6.6.6.6.",
"6.6.6.6.6.6.6.6.6.6.6.6.6.6.6.6.6.6.6.6.6.6.6.6.6.6.6.6.6.6.6.6.6.6.U 0 a q 0 q a 0 B 6.6.6.6.6.6.6.6.6.6.6.6.6.6.6.6.6.6.6.6.6.",
"6.6.6.6.6.6.6.6.6.6.6.6.6.6.6.6.6.6.6.6.6.6.6.6.6.6.6.6.6.6.6.6.6.6.J d k k l l l d C 6.6.6.6.6.6.6.6.6.6.6.6.6.6.6.6.6.6.6.6.6.",
"6.6.6.6.6.6.6.6.6.6.6.6.6.6.6.6.6.6.6.6.6.6.6.6.6.6.6.6.6.6.6.6.6.6.6.} #.#.#.#.#.} #.6.6.6.6.6.6.6.6.6.6.6.6.6.6.6.6.6.6.6.6.6.",
"6.6.6.6.6.6.6.6.6.6.6.6.6.6.6.6.6.6.6.6.6.6.6.6.6.6.6.6.6.6.6.6.6.6.6.6.6.6.6.6.6.6.6.6.6.6.6.6.6.6.6.6.6.6.6.6.6.6.6.6.6.6.6.6.",
"6.6.6.6.6.6.6.6.6.6.6.6.6.6.6.6.6.6.6.6.6.6.6.6.6.6.6.6.6.6.6.6.6.6.6.6.6.6.6.6.6.6.6.6.6.6.6.6.6.6.6.6.6.6.6.6.6.6.6.6.6.6.6.6.",
"6.6.6.6.6.6.6.6.6.6.6.6.6.6.6.6.6.6.6.6.6.6.6.6.6.6.6.6.6.6.6.6.6.6.6.6.6.6.6.6.6.6.6.6.6.6.6.6.6.6.6.6.6.6.6.6.6.6.6.6.6.6.6.6.",
"6.6.6.6.6.6.6.6.6.6.6.6.6.6.6.6.6.6.6.6.6.6.6.6.6.6.6.6.6.6.6.6.6.6.6.6.6.6.6.6.6.6.6.6.6.6.6.6.6.6.6.6.6.6.6.6.6.6.6.6.6.6.6.6.",
"6.6.6.6.6.6.6.6.6.6.6.6.6.6.6.6.6.6.6.6.6.6.6.6.6.6.6.6.6.6.6.6.6.6.6.6.6.6.6.6.6.6.6.6.6.6.6.6.6.6.6.6.6.6.6.6.6.6.6.6.6.6.6.6.",
"6.6.6.6.6.6.6.6.6.6.6.6.6.6.6.6.6.6.6.6.6.6.6.6.6.6.6.6.6.6.6.6.6.6.6.6.6.6.6.6.6.6.6.6.6.6.6.6.6.6.6.6.6.6.6.6.6.6.6.6.6.6.6.6.",
"6.6.6.6.6.6.6.6.6.6.6.6.6.6.6.6.6.6.6.6.6.6.6.6.6.6.6.6.6.6.6.6.6.6.6.6.6.6.6.6.6.6.6.6.6.6.6.6.6.6.6.6.6.6.6.6.6.6.6.6.6.6.6.6."
};
