/* XPM */
static char *player[] = {
/* columns rows colors chars-per-pixel */
"64 64 195 2 ",
"   c #1E1916",
".  c #151719",
"X  c #16191C",
"o  c #1B1B1B",
"O  c #181514",
"+  c #221D16",
"@  c #291C16",
"#  c #221D1A",
"$  c #2A1E18",
"%  c #222016",
"&  c #2D2315",
"*  c #2E2816",
"=  c #25211C",
"-  c #2B241B",
";  c #2E281A",
":  c #312919",
">  c #171C22",
",  c #1B1E22",
"<  c #111B28",
"1  c #1E2025",
"2  c #1F2428",
"3  c #15263A",
"4  c #16283E",
"5  c #1A293D",
"6  c #1D273A",
"7  c #232325",
"8  c #2B2623",
"9  c #2E2B24",
"0  c #242629",
"q  c #26292C",
"w  c #2A2B2B",
"e  c #322C25",
"r  c #352F25",
"t  c #2E302E",
"y  c #32312A",
"u  c #353126",
"i  c #2D2E31",
"p  c #222B3C",
"a  c #262B35",
"s  c #2E3033",
"d  c #28303F",
"f  c #313234",
"g  c #343639",
"h  c #35383A",
"j  c #7B3614",
"k  c #7E3816",
"l  c #172942",
"z  c #1B2C43",
"x  c #1C2E48",
"c  c #1F3149",
"v  c #243244",
"b  c #223149",
"n  c #2A3242",
"m  c #303746",
"M  c #5A5B6F",
"N  c #5C5D73",
"B  c #595D75",
"V  c #625D6D",
"C  c #5F6179",
"Z  c #5F6075",
"A  c #66616F",
"S  c #636075",
"D  c #63647B",
"F  c #6B677A",
"G  c #6E6879",
"H  c #796C74",
"J  c #8A3A0E",
"K  c #843710",
"L  c #863A12",
"P  c #893D15",
"I  c #813C1C",
"U  c #8B3D18",
"Y  c #913E11",
"T  c #825A0F",
"R  c #8B5E0B",
"E  c #935D06",
"W  c #8C411D",
"Q  c #86401D",
"!  c #914317",
"~  c #815910",
"^  c #956206",
"/  c #986706",
"(  c #95650B",
")  c #99670A",
"_  c #96680D",
"`  c #9D6B0B",
"'  c #996807",
"]  c #8E6413",
"[  c #8D6519",
"{  c #926413",
"}  c #966A14",
"|  c #9A6D15",
" . c #986918",
".. c #9C7119",
"X. c #9F7215",
"o. c #A3720E",
"O. c #A06E10",
"+. c #864120",
"@. c #B5743D",
"#. c #D37E2E",
"$. c #C47935",
"%. c #CA7C35",
"&. c #C47936",
"*. c #D27E31",
"=. c #C9782C",
"-. c #AC7442",
";. c #A27345",
":. c #CF813C",
">. c #DB8532",
",. c #D3853B",
"<. c #DA8A38",
"1. c #D7832B",
"2. c #E38C39",
"3. c #EABF3F",
"4. c #DA8B41",
"5. c #E08D40",
"6. c #E09246",
"7. c #DDBB4D",
"8. c #E3BE4A",
"9. c #E0BE50",
"0. c #EDC345",
"q. c #E6C04B",
"w. c #EAC54B",
"e. c #ECC84D",
"r. c #F3C946",
"t. c #F4CC49",
"y. c #F9D14A",
"u. c #EECB54",
"i. c #EAC958",
"p. c #E7C758",
"a. c #F0CB51",
"s. c #F7D357",
"d. c #F5D662",
"f. c #1355B9",
"g. c #225DBC",
"h. c #6C6C83",
"j. c #0B56C8",
"k. c #105ACA",
"l. c #2161C1",
"z. c #ADA6AF",
"x. c #AAA7B5",
"c. c #A5A7B8",
"v. c #ABABBC",
"b. c #A7A6B5",
"n. c #B3ACB5",
"m. c #B6AEB6",
"M. c #BAB3BB",
"N. c #E2BB8D",
"B. c #EDC18A",
"V. c #F9C586",
"C. c #F2C48D",
"Z. c #FBC98A",
"A. c #EAC59A",
"S. c #F2C692",
"D. c #F1CB9E",
"F. c #F9CC93",
"G. c #FFD398",
"H. c #EFCAA1",
"J. c #F0CAA0",
"K. c #AFB0C0",
"L. c #B2B2C4",
"P. c #E8E9CE",
"I. c #E8E8C9",
"U. c #F2EEC2",
"Y. c #F4F2C5",
"T. c #F9F5C7",
"R. c #F4F2CA",
"E. c #FEFCCA",
"W. c #FAF8C8",
"Q. c #E6EBD4",
"!. c #F6F6D4",
"~. c #F9F6D0",
"^. c #FCFBD4",
"/. c #FFFFDA",
"(. c #F5F6DB",
"). c #E4E4E3",
"_. c #E8E7E7",
"`. c #EBEAE5",
"'. c #E8E9E9",
"]. c #F0EFEF",
"[. c #EFF7E2",
"{. c #F2F1EF",
"}. c #F7F7E7",
"|. c #EFEFF0",
" X c #F2F1F1",
".X c #F3F3F3",
"XX c #F6F7F8",
"oX c #FDFDFD",
"OX c #FCFCFC",
"+X c #FEFEFE",
"@X c #FFFFFF",
"#X c #FFFFFE",
"$X c #FEFEFD",
"%X c #FFFFFF",
"&X c #FDFCF0",
/* pixels */
"@X@X@X@X@X@X@X@X@X@X@X@X@X@X@X@X@X@X@X@X@X@X@X@X@X@X@X@X@X@X@X@X@X@X@X@X@X@X@X@X@X@X@X@X@X@X@X@X@X@X@X@X@X@X@X@X@X@X@X@X@X@X@X@X",
"@X@X@X@X@X@X@X@X@X@X@X@X@X@X@X@X@X@X@X@X@X@X@X@X@X@X@X@X@X@X@X@X@X@X@X@X@X@X@X@X@X@X@X@X@X@X@X@X@X@X@X@X@X@X@X@X@X@X@X@X@X@X@X@X",
"@X@X@X@X@X@X@X@X@X@X@X@X@X@X@X@X@X@X@X@X@X@X@X@X@X@X@X@X@X@X@X@X@X@X@X@X@X@X@X@X@X@X@X@X@X@X@X@X@X@X@X@X@X@X@X@X@X@X@X@X@X@X@X@X",
"@X@X@X@X@X@X@X@X@X@X@X@X@X@X@X@X@X@X@X@X@X@X@X@X@X@X@X@X@X@X@X@X@X@X@X@X@X@X@X@X@X@X@X@X@X@X@X@X@X@X@X@X@X@X@X@X@X@X@X@X@X@X@X@X",
"@X@X@X@X@X@X@X@X@X@X@X@X@X@X@X@X@X@X@X@X@X@X@X@X@X@X@X@X@X@X@X@X@X@X@X@X@X@X@X@X@X@X@X@X@X@X@X@X@X@X@X@X@X@X@X@X@X@X@X@X@X@X@X@X",
"@X@X@X@X@X@X@X@X@X@X@X@X@X@X@X@X@X@X@X@X@X@X@X@X@X@X@X@X@X@X@X@X@X@X@X@X@X@X@X@X@X@X@X@X@X@X@X@X@X@X@X@X@X@X@X@X@X@X@X@X@X@X@X@X",
"@X@X@X@X@X@X@X@X@X@X@X@X@X@X@X@X@X@X@X@X@X@X@X@X@X@X@X@X@X@X@X@X@X@X@X@X@X@X@X@X@X@X@X@X@X@X@X@X@X@X@X@X@X@X@X@X@X@X@X@X@X@X@X@X",
"@X@X@X@X@X@X@X@X@X@X@X@X@X@X@X@X@X@X X X@X@X&X&X}.{.{. X X X@X@X X X X X X X@X@X@X@X@X@X@X@X@X@X@X@X@X@X@X@X@X@X@X@X@X@X@X@X@X@X",
"@X@X@X@X@X@X@X@X@X@X@X@X@X@X@X@X@X Xs y (./.d.u...[ 9 0 0 g XXXXf 7 0 0 0 g  X@X@X@X@X@X@X@X@X@X@X@X@X@X@X@X@X@X@X@X@X@X@X@X@X@X",
"@X@X@X@X@X@X@X@X@X@X@X@X@X@X@X@X@X Xs 9 I.T.s.e.X.] ; =   9 `.`.e # = =   9 ). X]. X@X@X@X@X@X@X@X@X@X@X@X@X@X@X@X@X@X@X@X@X@X@X",
"@X@X@X@X@X@X@X@X@X@X@X@X@X@X@X@X@X@X X).t t T.^.!.Y.p.8.] R  ...8.e.e.8.( T 9 0 0 g  X@X@X@X@X@X@X@X@X@X@X@X@X@X@X@X@X@X@X@X@X@X",
"@X@X@X@X@X@X@X@X@X@X@X@X@X@X@X@X@X@X@X Xs 9 I.!.^.W.s.r.o.' ^ ' 0.t.y.t.o.( * =   9 ). X@X@X@X@X@X@X@X@X@X@X@X@X@X@X@X@X@X@X@X@X",
"@X@X@X@X@X@X@X@X@X@X@X@X@X@X@X@X@X@X@X@X X).s 9 p.s.t.t.t.0.' ^ ( ' t.y.0.e.e.8.( ~ 8 f  X@X@X@X@X@X@X@X@X@X@X@X@X@X@X@X@X@X@X@X",
"@X@X@X@X@X@X@X@X@X@X@X@X@X@X@X@X@X@X@X@X@X Xs 9 7.e.t.t.t.0...} ' ' 0.t.t.t.t.0.o.{ - s ). X@X@X@X@X@X@X@X@X@X@X@X@X@X@X@X@X@X@X",
"@X@X@X@X@X@X@X@X@X@X@X@X@X@X@X@X@X@X@X@X@X@X@X`.9 : e.t.' ..U.T.a.0.' ' t.t.' ' 3.u.T.P.t s  X@X@X@X@X@X@X@X@X@X@X@X@X@X@X@X@X@X",
"@X@X@X@X@X@X@X@X@X@X@X@X@X@X@X@X@X@X X X@X@X@X`.s 9 8.0.^ } T.E.d.a.( ( 0.0.} ..a.d.T.P.9 i  X@X@X@X@X@X@X@X@X@X@X@X@X@X@X@X@X@X",
"@X@X@X@X@X@X@X@X@X@X@X@X@X@X@X@X@X Xs i @X@Xs i '.`.../ ^ ' a.d.E.Y.} ^ ^ ..U.^.^.T.t s '.@X@X@X@X@X@X@X@X@X@X@X@X@X@X@X@X@X@X@X",
"@X@X@X@X@X@X@X@X@X@X@X@X@X@X@X@X@X Xf i '.).9 9 `.[. .^ } O.3.a.^.!.} ^ ^ ..U.^.^.U.9 9 `.@X@X@X@X@X@X@X@X@X@X@X@X@X@X@X@X@X@X@X",
"@X@X@X@X@X@X@X@X@X@X@X@X@X@X@X@X@X@X X).g y 7.8... .#.>.V.V.O...^.^.} / 0.0...} } ..e.8.9 s  X@X@X@X@X@X@X@X@X@X@X@X@X@X@X@X@X@X",
"@X@X@X@X@X@X@X@X@X@X@X@X@X@X@X@X@X@X@X X7 + p.s.^ ^ >.<.C.B.] ] T.Y.} ' q.q.( E ^ ' e.7.9 s  X@X@X@X@X@X@X@X@X@X@X@X@X@X@X@X@X@X",
"@X@X@X@X@X@X@X@X@X@X@X@X@X@X@X@X@X@X@X X0 7 T.T.} ' V.B.r =   * p.a.' R & - R ' 0.q.: y ). X@X@X@X@X@X@X@X@X@X@X@X@X@X@X@X@X@X@X",
"@X@X@X@X@X@X@X@X@X@X@X@X@X@X@X@X@X@X@X X0 7 T.T.[ { F.S.0 < 0 y e.r.' R - - T ( 0.8.# 0  X@X@X@X@X@X@X@X@X@X@X@X@X@X@X@X@X@X@X@X",
"@X@X@X@X@X@X@X@X@X@X@X@X@X@X@X@X@X@X@X X7 + u.u.; 8 C.D.f.f.Q.Y.s.r.) { B.N.; & ) ) + 0  X@X@X@X@X@X@X@X@X@X@X@X@X@X@X@X@X@X@X@X",
"@X@X@X@X@X@X@X@X@X@X@X@X@X@X@X@X@X@X@X Xg y 7.7.= 7 C.J.k.k.[.^.u.0.' } Z.C.7 X T T   0 {.@X@X@X@X@X@X@X@X@X@X@X@X@X@X@X@X@X@X@X",
"@X@X@X@X@X@X@X@X@X@X@X@X@X@X@X@X@X@X@X@X X).u % X 8 C.H.j.k.[.^...' 1.>.2.,.- X = = . 9  X@X@X@X@X@X@X@X@X@X@X@X@X@X@X@X@X@X@X@X",
"@X@X@X@X@X@X@X@X@X@X@X@X@X@X@X@X@X@X@X@X@X Xg 7 X 8 C.D.g.l.Q.U.} ^ %.*.*.$.= > , 1 , i ). X@X@X@X@X@X@X@X@X@X@X@X@X@X@X@X@X@X@X",
"@X@X@X@X@X@X@X@X@X@X@X@X@X@X@X@X@X@X@X@X@X@X@X`.0 = S.G.A.A.6.<.' R - # - = 6 z N N N M 9 f  X@X@X@X@X@X@X@X@X@X@X@X@X@X@X@X@X@X",
"@X@X@X@X@X@X@X@X@X@X@X@X@X@X@X@X@X@X@X@X@X@X@X_.0 7 N.S.G.F.:.=.( T - X X > z b D h.h.D , 0 ). X@X@X@X@X@X@X@X@X@X@X@X@X@X@X@X@X",
"@X@X@X@X@X@X@X@X@X@X@X@X@X@X@X@X@X@X@X@X@X Xg 2 5 5 7 u S.S.r # X - ;.;.p z M D v.L.L.v.D N 0 f  X@X@X@X@X@X@X@X@X@X@X@X@X@X@X@X",
"@X@X@X@X@X@X@X@X@X@X@X@X@X@X@X@X@X@X@X@X X).e X 5 5 X 7 N.N.7 X # - -.-.p z D h.x.v.M.n.D N 0 f  X@X@X@X@X@X@X@X@X@X@X@X@X@X@X@X",
"@X@X@X@X@X@X@X@X@X@X@X@X@X@X@X@X@X@X@X Xg 9 %.%.= > 5 5 v v 4 p ;.-.! L p c v.v.q 8 :.:.= q ).@X@X@X@X@X@X@X@X@X@X@X@X@X@X@X@X@X",
"@X@X@X@X@X@X@X@X@X@X@X@X@X@X@X@X@X@X X).0 # %.%.= > z z z z l p -.@.L j p v c.x.8 & ,.,.& e ).@X@X@X@X@X@X@X@X@X@X@X@X@X@X@X@X@X",
"@X@X@X@X@X@X@X@X@X@X@X@X@X@X@X@X@X Xg 9 N M 8 # X , N C D N z p U P @ X X , c m &.,.T.T.,.&.e g  X@X@X@X@X@X@X@X@X@X@X@X@X@X@X@X",
"@X@X@X@X@X@X@X@X@X@X@X@X@X@X@X@X@X X7 X D D 7 X X 1 Z D D N c p j j 8 0 # # 3 p %.4.~.T.2.*.+ 0  X@X@X@X@X@X@X@X@X@X@X@X@X@X@X@X",
"@X@X@X@X@X@X@X@X@X@X@X@X@X@X@X@X@X X0 7 v.n.Q j # , S D z z N N # 8 b.z.I j X 1 V H D.G.2.*.+ 0  X@X@X@X@X@X@X@X@X@X@X@X@X@X@X@X",
"@X@X@X@X@X@X@X@X@X@X@X@X@X@X@X@X@X X0 7 v.n.! K # , N N d d N N , 7 K.M.! L @ 7 N G C.V.,.&.e g  X@X@X@X@X@X@X@X@X@X@X@X@X@X@X@X",
"@X@X@X@X@X@X@X@X@X@X@X@X@X@X@X@X@X X7 X D G P K # , z n &.&.v l X 7 v.M. .E L I S G 4.,.& 9 ). X@X@X@X@X@X@X@X@X@X@X@X@X@X@X@X@X",
"@X@X@X@X@X@X@X@X@X@X@X@X@X@X@X@X@X Xg 9 N V I j # , 3 p 4.,.s 6 X 7 c.n. .E L I V A %.&.9 g  X@X@X@X@X@X@X@X@X@X@X@X@X@X@X@X@X@X",
"@X@X@X@X@X@X@X@X@X@X@X@X@X@X@X@X@X@X X).9 X +   . X X 0 n.m.Q j # , D G P L s 5 7 7 + e ). X@X@X@X@X@X@X@X@X@X@X@X@X@X@X@X@X@X@X",
"@X@X@X@X@X@X@X@X@X@X@X@X@X@X@X@X@X@X@X Xg 7 0 0 9 9 X 7 c.x.+.j # , N V I j 5 3 X X 1 g  X@X@X@X@X@X@X@X@X@X@X@X@X@X@X@X@X@X@X@X",
"@X@X@X@X@X@X@X@X@X@X@X@X@X@X@X@X@X@X@X@X X X X]. X).9 X v b p p 5 5 1 , # # X , X 9 ).@X@X@X@X@X@X@X@X@X@X@X@X@X@X@X@X@X@X@X@X@X",
"@X@X@X@X@X@X@X@X@X@X@X@X@X@X@X@X@X@X@X@X@X@X@X@X@X X9 X z z l l z 5 , , , > X , X 9 ).@X@X@X@X@X@X@X@X@X@X@X@X@X@X@X@X@X@X@X@X@X",
"@X@X@X@X@X@X@X@X@X@X@X@X@X@X@X@X@X@X@X@X@X@X@X@X@X|.7 X N B z z l z N N z 3 5 5 5 5 0 g  X@X@X@X@X@X@X@X@X@X@X@X@X@X@X@X@X@X@X@X",
"@X@X@X@X@X@X@X@X@X@X@X@X@X@X@X@X@X@X@X@X@X@X@X@X@X Xg 9 N N z z 4 z D D b z z z z z . 0 |.@X@X@X@X@X@X@X@X@X@X@X@X@X@X@X@X@X@X@X",
"@X@X@X@X@X@X@X@X@X@X@X@X@X@X@X@X@X@X@X@X@X@X@X@X@X@X X).i , l l > 1 S D D N z l z z . 0  X@X@X@X@X@X@X@X@X@X@X@X@X@X@X@X@X@X@X@X",
"@X@X@X@X@X@X@X@X@X@X@X@X@X@X@X@X@X@X@X@X@X@X@X@X@X@X@X X9 . p p X , N C D N z 4 z 5 0 h  X@X@X@X@X@X@X@X@X@X@X@X@X@X@X@X@X@X@X@X",
"@X@X@X@X@X@X@X@X@X@X@X@X@X@X@X@X@X@X@X@X@X@X@X@X@X@X@X X0   k k # > z z z z > , X 0 ). X@X@X@X@X@X@X@X@X@X@X@X@X@X@X@X@X@X@X@X@X",
"@X@X@X@X@X@X@X@X@X@X@X@X@X@X@X@X@X@X@X@X@X@X@X@X@X@X X).0   k j # , p p p p # # . 9  X@X@X@X@X@X@X@X@X@X@X@X@X@X@X@X@X@X@X@X@X@X",
"@X@X@X@X@X@X@X@X@X@X@X@X@X@X@X@X@X@X@X@X@X@X@X@X@X Xh 0 X X # # X # j P -.-.L j X 0  X@X@X@X@X@X@X@X@X@X@X@X@X@X@X@X@X@X@X@X@X@X",
"@X@X@X@X@X@X@X@X@X@X@X@X@X@X@X@X@X@X@X@X@X@X@X@X X).8   = = # # X # j P -.-.Y L @ 9 ). X@X@X@X@X@X@X@X@X@X@X@X@X@X@X@X@X@X@X@X@X",
"@X@X@X@X@X@X@X@X@X@X@X@X@X@X@X@X@X@X@X@X@X@X@X Xh 8 k P -.-.P j # X X # = - L J L k 8 h  X@X@X@X@X@X@X@X@X@X@X@X@X@X@X@X@X@X@X@X",
"@X@X@X@X@X@X@X@X@X@X@X@X@X@X@X@X@X@X@X@X@X@X@X X0   k P -.-.P j $ # = = X @ j L J L   0  X@X@X@X@X@X@X@X@X@X@X@X@X@X@X@X@X@X@X@X",
"@X@X@X@X@X@X@X@X@X@X@X@X@X@X@X@X@X@X@X@X@X@X@X X0 .     # #   + j P -.-.P j $ $ L L   9  X@X@X@X@X@X@X@X@X@X@X@X@X@X@X@X@X@X@X@X",
"@X@X@X@X@X@X@X@X@X@X@X@X@X@X@X@X@X@X@X@X@X@X@X Xh 0 9 0 0 0 0 9 k P -.-.P j # X k k   0  X@X@X@X@X@X@X@X@X@X@X@X@X@X@X@X@X@X@X@X",
"@X@X@X@X@X@X@X@X@X@X@X@X@X@X@X@X@X@X@X@X@X@X@X@X X X X X X X X).8   # #     . .     . 0  X@X@X@X@X@X@X@X@X@X@X@X@X@X@X@X@X@X@X@X",
"@X@X@X@X@X@X@X@X@X@X@X@X@X@X@X@X@X@X@X@X@X@X@X@X@X@X@X@X@X@X@X Xh 0 0 0 0 0 9 9 0 0 0 h  X@X@X@X@X@X@X@X@X@X@X@X@X@X@X@X@X@X@X@X",
"@X@X@X@X@X@X@X@X@X@X@X@X@X@X@X@X@X@X@X@X@X@X@X@X@X@X@X@X@X@X@X@X X X X X X X X X X X X X@X@X@X@X@X@X@X@X@X@X@X@X@X@X@X@X@X@X@X@X",
"@X@X@X@X@X@X@X@X@X@X@X@X@X@X@X@X@X@X@X@X@X@X@X@X@X@X@X@X@X@X@X@X@X@X@X@X@X@X@X@X@X@X@X@X@X@X@X@X@X@X@X@X@X@X@X@X@X@X@X@X@X@X@X@X",
"@X@X@X@X@X@X@X@X@X@X@X@X@X@X@X@X@X@X@X@X@X@X@X@X@X@X@X@X@X@X@X@X@X@X@X@X@X@X@X@X@X@X@X@X@X@X@X@X@X@X@X@X@X@X@X@X@X@X@X@X@X@X@X@X",
"@X@X@X@X@X@X@X@X@X@X@X@X@X@X@X@X@X@X@X@X@X@X@X@X@X@X@X@X@X@X@X@X@X@X@X@X@X@X@X@X@X@X@X@X@X@X@X@X@X@X@X@X@X@X@X@X@X@X@X@X@X@X@X@X",
"@X@X@X@X@X@X@X@X@X@X@X@X@X@X@X@X@X@X@X@X@X@X@X@X@X@X@X@X@X@X@X@X@X@X@X@X@X@X@X@X@X@X@X@X@X@X@X@X@X@X@X@X@X@X@X@X@X@X@X@X@X@X@X@X",
"@X@X@X@X@X@X@X@X@X@X@X@X@X@X@X@X@X@X@X@X@X@X@X@X@X@X@X@X@X@X@X@X@X@X@X@X@X@X@X@X@X@X@X@X@X@X@X@X@X@X@X@X@X@X@X@X@X@X@X@X@X@X@X@X",
"@X@X@X@X@X@X@X@X@X@X@X@X@X@X@X@X@X@X@X@X@X@X@X@X@X@X@X@X@X@X@X@X@X@X@X@X@X@X@X@X@X@X@X@X@X@X@X@X@X@X@X@X@X@X@X@X@X@X@X@X@X@X@X@X",
"@X@X@X@X@X@X@X@X@X@X@X@X@X@X@X@X@X@X@X@X@X@X@X@X@X@X@X@X@X@X@X@X@X@X@X@X@X@X@X@X@X@X@X@X@X@X@X@X@X@X@X@X@X@X@X@X@X@X@X@X@X@X@X@X"
};
