/* XPM */
static char *wall[] = {
/* columns rows colors chars-per-pixel */
"52 64 195 2 ",
"   c #3E6602",
".  c #42690C",
"X  c #486A0F",
"o  c #4C7308",
"O  c #4A6B15",
"+  c #486B17",
"@  c #4B711B",
"#  c #547612",
"$  c #587A17",
"%  c #566A27",
"&  c #54742B",
"*  c #59752B",
"=  c #5B7B2B",
"-  c #526E3D",
";  c #4C7635",
":  c #5D7835",
">  c #53733E",
",  c #567E3E",
"<  c #616C2C",
"1  c #66782C",
"2  c #676B35",
"3  c #706B3E",
"4  c #65763B",
"5  c #73743C",
"6  c #526F40",
"7  c #5D6E44",
"8  c #4D7D46",
"9  c #5B7345",
"0  c #557B42",
"q  c #5D7B40",
"w  c #54764B",
"e  c #5B754B",
"r  c #53794B",
"t  c #5A794C",
"y  c #567C52",
"u  c #5B7952",
"i  c #646D43",
"p  c #6B6C44",
"a  c #646E4B",
"s  c #6C6D4A",
"d  c #736D46",
"f  c #786F46",
"g  c #746D4A",
"h  c #7A6E4C",
"j  c #647244",
"k  c #6C7246",
"l  c #637C42",
"z  c #63734B",
"x  c #6A744C",
"c  c #697B4A",
"v  c #6B7D4D",
"b  c #73724C",
"n  c #7C724D",
"m  c #767849",
"M  c #637652",
"N  c #6B7551",
"B  c #647A54",
"V  c #6A7A53",
"C  c #657B59",
"Z  c #6B7C5B",
"A  c #747554",
"S  c #7D7352",
"D  c #777A57",
"F  c #816F4F",
"G  c #81734F",
"H  c #847451",
"J  c #897654",
"K  c #847B54",
"L  c #8E7B58",
"P  c #907D59",
"I  c #59810B",
"U  c #5E8319",
"Y  c #648C0D",
"T  c #6E9607",
"R  c #658D13",
"E  c #61871B",
"W  c #699015",
"Q  c #739917",
"!  c #5A833F",
"~  c #638429",
"^  c #6E912F",
"/  c #789B2A",
"(  c #698736",
")  c #72893C",
"_  c #759637",
"`  c #4F804D",
"'  c #5C8640",
"]  c #5E8A42",
"[  c #4F8252",
"{  c #568457",
"}  c #618E44",
"|  c #6B834D",
" . c #658F49",
".. c #778848",
"X. c #649246",
"o. c #669248",
"O. c #6A934C",
"+. c #769446",
"@. c #7C944C",
"#. c #7D9B4B",
"$. c #68825C",
"%. c #7D8453",
"&. c #7C8B55",
"*. c #74835C",
"=. c #7E8C5A",
"-. c #6E9551",
";. c #799555",
":. c #729956",
">. c #7D9B55",
",. c #7C945F",
"<. c #7C9D5D",
"1. c #7EA046",
"2. c #598869",
"3. c #6A8362",
"4. c #648A65",
"5. c #6C8C6B",
"6. c #728362",
"7. c #758A6B",
"8. c #7E9760",
"9. c #7C9D61",
"0. c #73906D",
"q. c #628F73",
"w. c #6D9576",
"e. c #729777",
"r. c #759A7B",
"t. c #7CA264",
"y. c #7FA669",
"u. c #848E25",
"i. c #859027",
"p. c #86922B",
"a. c #88952E",
"s. c #8B9935",
"d. c #8E9C3A",
"f. c #909F3E",
"g. c #82A03C",
"h. c #91A03F",
"j. c #819F44",
"k. c #809C4B",
"l. c #848255",
"z. c #848656",
"x. c #8B835B",
"c. c #858D5D",
"v. c #849D54",
"b. c #82935B",
"n. c #839C5B",
"m. c #899F59",
"M. c #81A346",
"N. c #83A24B",
"B. c #96A64A",
"V. c #97A84B",
"C. c #99A94E",
"Z. c #84A254",
"A. c #89A057",
"S. c #8AA259",
"D. c #9BAD53",
"F. c #92AD59",
"G. c #9DB057",
"H. c #9EB159",
"J. c #A1B55D",
"K. c #859661",
"L. c #819C61",
"P. c #81A364",
"I. c #81A66A",
"U. c #82A86E",
"Y. c #94AE61",
"T. c #99B364",
"R. c #9CB668",
"E. c #89AC74",
"W. c #A3B761",
"Q. c #A5B965",
"!. c #A1B76E",
"~. c #A5BB6A",
"^. c #A9BD6C",
"/. c #A5BD71",
"(. c #AABF71",
"). c #ABC06F",
"_. c #ACC273",
"`. c #AEC679",
"'. c #AFC87B",
"]. c #B0C77A",
"[. c #B1C97D",
"{. c #749C82",
"}. c #95B888",
"|. c #B4CC80",
" X c #A3C59C",
".X c #A5C8A1",
"XX c #B3D7BB",
"oX c #B8DCC2",
"OX c #CBE4CF",
"+X c #C8E7D5",
"@X c #D4ECDC",
"#X c #D5F3E9",
"$X c #DEF9F2",
"%X c #DEFFFC",
"&X c #E4FEFB",
/* pixels */
"O.o.O.-.U.U.:.t.:.:.I.oX+X.X}.XXXXoX#X%X%X%X%X%X%X%X%X%X%X%X%X%X%X#XoXXXXX}..X+XoXy.-.:.t.:.U.U.O.O.O.-.",
"X.X.X.O.-.O.-.O. .-.:.9.t.:.-.<.:.:..X&X&X&X$X#X$X&X$X#X$X&X&X&X&X.X:.:.<.-.:.t.:.:.O.o.O.O.O.-.O.X.X.o.",
"X.X.X.X.} X.o.X.] } o. .O.O.o.O.O.-.E.OXOXOX}.I.}.@X XI.}.@X@XOXOX}.:.-.O. .O.o.o.o.} X.X.X.} } X.X.X.} ",
"} ] } } } X.X.X.} X.X.} o.} } X.o.o.-.I.9.<.:.-.-.E.:.O.O.I.t.9.P.:.O.o.X.} X.X.X.} } } X.X.} ] } X.X.} ",
"] ] ] ] } } } X.X.} X.o.o.} X.X.X.X. .-.-.O.O.O.o.} } } }  .O.O.O.o.X.X.X.X.X.} } } ] ] } X.} } ] ] } } ",
"] ' ] ] ] ] } X.} ] ] X.X.} X.} } } o.o. .} X.X.} ] } } } } X.X.X.X.X.X.X.} } ] ] ] ] } } } } } ] ] ] ] ",
"] ] ' ] ] ] ] } ] ] ] } X.} } ] ] ] X.X.X.} } } X.} X.X.X.} } } X.X.X.X.} ] ] ] ] ] } X.X.} ] ] ] ] ] ] ",
"} X.} ] ] ] ] ] ] ] ] } } ] ] ] ] ] } X.X.} ] ] } X.X.X.X.} ] ] } X.X.X.] ] ] ] ] ] X.} } } ] ] ] ] ] ] ",
"] X.} X.X.} ] ] ] ] ] } X.] ] ] ] ] } X.X.} ] } } X.X.X.X.} } ] } X.X.} ] ] ] ] ] } X.] ] ' ' ] ] ] ] ] ",
"} ] ] ] X.} ] ] ] ] } X.X.] ] ] ] ] } X.X.} ] ] ] X.X.} } ] ] ] } X.X.X.} ] ] ] ] } } ] ] ] ] ] ] ] ] ] ",
"] ] ] ] } X.} ] ] ] } X.X.} ] ] ] ] ] ] } ] ] ] } X.} ] ] ] ] ] ] } } X.X.} ] ] ] ] ] ] ] ] ] ] ] ] ] ] ",
"] ] ] ] ] } } ] ] ] X.X.X.} ] ] ] ] ] ] ] ] ] } X.} } ] ] ] ] ] ] ] } X.X.} ] } ] ] ' ] ] ] ] ] ] ' ] ] ",
"] ] ] ] ] ] ] ] ] ] } } } ] ] ] ] ] ] ] ] ' ] X.X.} ] ] ] ] ] ] ] } X.X.X.X.} ] ] ] ] ] ] ] ] ] ] ' ' ' ",
"] ] ' ' ] ] ] ] ] ] ] ] ] ] ' ] ] ] ] ] ] ! ] X.X.] ] ] ] ' ] ] ] } X.X.X.X.} ] ] ] ] ] ] ] ] ] ' ' ! ' ",
"] ] ] ' ] ] ] ] ] ] ] ] ] ] ] ' ] ] ] ] ] ' ] X.} } ] ] ' ' ] ] ] ] } } } X.X.} } ] ] ] ] ] ' ' ' ! ' ] ",
"] ] ] ' ] ] ] ] ' ' ] ] ' ' ' ! ' ] ' ' ! ' ] } } ] ] ] ' ' ] ] ] ] ] ] } X.X.} ] ] } ] ] ' ] ] ] ] ] ] ",
"' ' ' ' ' ' ] ' ! ! ! ! , ! ! ! ! ! ! ! ! ' ] ] ] ] ] ] ] ' ' ' ] ] ] ] ] ] ] ] ] ' ' ] ] ! ' ' ] ] ] ] ",
"! ! ! ! , q ! ! ! , , 9 j 0 q v l q q q ! ! ' ! ! ! ! ! ] ' ! ! ! ' ' ' ! ! ' ' ! ! ! ! ! ! ! ! ' ' ' ! ",
"0 0 , , k n k j q , 0 w g z s J J n z z k , , 0 0 0 0 0 ! ' ! ! ! l m l q , ! , q 0 , q k m n j , , q 0 ",
"r r r r g J F g e r r r e g g J J g z h x r r r r w w w 0 0 j j j m J n 7 > > j n t r e h J J s r x s r ",
"w x z e s J J p w w x b e s F J H p g h z e e e w 6 6 w w w s s h L P G 7 - - 7 G S 9 w i H J h 9 g p w ",
"7 n n e g J H i w w g G i 7 h J H g h s b b n p 6 w 4.q.2.2.N S S L P h 7 w 7 x H H z w i n J H s h z - ",
"s n g M A J G p u u b n d B A J J H A Z n n n p z w.{.{.r.{.Z g H L J h C 3.k V H H 3.z x A J J H S C i ",
"s n s C A J n p B B A n d $.D J L H 6.7.n n n p z e.{.{.{.{.3.Z S J J g C 5.k V S H 6.v V D J L J S 5.j ",
"g n x C A J n p j B D n d $.A H J H 7.7.n G h p M r.r.r.r.r.3.5.S J J g C 5.k k n G *.x V 6.H P J A 5.z ",
"h n C C A J h k p u A n d V x h J H 0.7.G H d p B r.r.r.r.r.3.5.S J J g C 0.x d G G *.v x Z H L H s 5.B ",
"h x y M n H A x p t x G d z a h J S 0.6.G H d p B e.w.4.4.4.$.3.D J J g u { z g H n $.v j t n J H z $.B ",
"g t r i n H V e k e x G d 9 e n J n { B n G p i e { { [ [ { u u M J J s e { z g H n u t j t h J S e y r ",
"2 + ; p G G % % k 9 x G d 9 > n J h 0 z G n p i - ; 8 ` ` 8 w > 4 H J p > 8 9 g K n e 9 i r g J H 9 > 8 ",
". . + d G h + @ k j b G p & . d J d + 2 H n k : .   @ , ; + . . % J J 3 . . % h K n * 4 k & 2 J H % . @ ",
"+ & 2 G G h 4 : v v n G k & . 3 J h % 2 H n v , + & : 4 & +   . < J J d +   X n K b 4 v v * < J H % @ * ",
"= k h J H n k : = = f K 5 = # 3 H H k b H b | 4 $ = = , = o o o 5 J J h * o < K z.m | l v l 5 J J 2 : l ",
"~ n H L J H n 1 ~ U ..z.+._ ( f J J g n H f ~ $ I I I I I U E R 5 J L H 1 $ m c.c.&.^ E U U 5 J J m ( ~ ",
"..S L L J K K %...+.=.c.8.,.&.K J J h H H m ( E Y W R Y R R W _ ..L P J 5 ) %.,.c.;._ ^ W W 5 L x.&.+.+.",
"&.&.c.K z.%.=.=.9.9.L.L.8.,.,.c.x.x.K %.z.@._ / Q Q T T T Q / +.c.x.H z...@.=.L.8.L.>._ / _ z.K.c.=.8.,.",
"<.;.@.>.@.v.n.>.<.<.P.P.<.L.,.n.b.b.n.#.k.N.M.1.N.N./ / g.j.#.<.n.;.%.b.n.Z.>.>.n.A.>.Z.M.N.k.Z.<.<.<.<.",
"+.#.+.+.#.#.#.k.@.v.#.#.#.v.n.Z.v.Z.Z.v.S.S.v.v.v.v.A.m.S.m.v.v.A.v.A.A.Z.A.A.v.v.S.Z.v.Z.#.k.N.N.#.+.+.",
"N.T./.T.F.T.~./.~._.~.F.T.~./._.~.~.~.~./._.~./.!.~.~./._.R.~./.(././.T.Y.R.R.~./.`._.R.T.~.~.~._.~.R.T.",
"[.[.[.[.[.[.[.|.|.|.|.[.[.[.[.[.[.[.[.[.].].[.[.[.[.[.|.|.|.[.|.[.[.[.[.[.[.`.[.[.[.[.[.[.[.[.[.].].[.[.",
"`.`.`.`.'.'.`.`.`.`.`.`.`.`.`.`.`.`.`.`.`.`.[.[.[.[.[.[.[.[.'.'.[.[.`.`.`.`.`.`.`.`.`._._._.`.`.`.`.`.`.",
"_._._._._._._._._._._._._._._._._._._._._.`.].].`.`.`.`.].`.`._.`.`._.`._._._._._._._._._._._._._._._._.",
"(.^.^.^.(._._._._._._._._._._._._._._._._._._._._._._._._._._._._._._._._._._._._._.^.^.^.^.(._._._._.^.",
"_.).^.^.^.^.)._.^.^._._._._._._._.).)._._._._._._._._._._._._._._._._.^.^.).^.^.^._._.).^.^.^.^.^.^.^.^.",
"^.^.^.^.^.^.^.^.~.^.^.^.^.).^.^.^.^.^.^.^.^._._.).)._.^.^.^.^.^.).).^.^.^.^.^.^.^.^.^.^.~.~.~.~.~.~.~.~.",
"^.^.^.^.^.~.~.~.Q.~.^.^.^.^.^.^.^.^.~.Q.^.^.^.^.^.^.^.^.~.~.~.^.^.^.^.^.^.^.^.^.^.^.^.Q.~.Q.Q.Q.Q.Q.Q.Q.",
"Q.Q.Q.Q.Q.W.Q.Q.Q.Q.Q.Q.Q.Q.Q.Q.Q.Q.Q.Q.Q.Q.Q.Q.Q.~.Q.Q.Q.Q.Q.Q.Q.Q.Q.Q.Q.^.~.Q.Q.~.~.Q.Q.Q.W.Q.Q.W.W.W.",
"J.J.J.W.W.W.Q.W.W.W.W.Q.Q.Q.Q.Q.Q.Q.Q.Q.Q.Q.Q.Q.Q.Q.Q.Q.Q.Q.Q.Q.Q.Q.Q.Q.Q.Q.Q.Q.Q.Q.Q.W.W.J.J.J.J.J.J.J.",
"J.J.J.J.J.J.W.W.J.J.J.J.W.W.W.W.W.W.W.W.W.W.Q.W.W.J.J.Q.W.W.W.W.W.J.J.J.W.W.W.W.Q.Q.W.J.J.J.J.J.J.J.J.J.",
"J.J.J.J.J.J.J.W.W.J.J.Q.W.W.J.J.W.J.J.J.J.J.J.J.J.J.J.J.J.J.J.J.J.J.J.J.W.W.W.W.J.J.J.H.H.H.H.H.J.J.J.J.",
"H.H.H.H.H.H.J.J.J.J.J.J.J.J.J.J.J.H.H.H.H.H.H.H.H.H.D.D.D.D.H.H.H.H.G.H.H.H.H.H.H.H.G.H.D.D.D.D.H.H.H.D.",
"D.D.D.D.D.D.H.H.H.H.H.D.H.H.H.H.D.D.D.D.D.G.H.D.D.D.D.D.D.D.D.D.D.D.D.D.G.D.D.D.D.D.D.D.D.D.D.D.D.D.D.D.",
"D.D.D.D.D.D.D.D.D.D.D.D.D.D.D.D.D.D.D.D.D.D.D.D.D.D.D.D.D.D.D.D.D.D.D.D.D.D.D.D.D.C.C.C.C.C.C.V.V.C.C.C.",
"C.C.C.C.D.D.C.C.C.C.C.C.D.D.D.D.V.V.V.C.D.D.D.C.C.C.C.C.C.C.C.C.V.C.C.D.D.D.D.C.C.C.V.V.V.V.V.V.V.V.V.V.",
"V.C.C.C.C.C.V.V.V.V.B.V.V.V.C.V.B.B.B.V.V.V.V.V.V.V.B.B.V.V.V.V.V.C.C.C.C.C.C.C.C.C.V.V.V.V.V.V.V.V.B.B.",
"B.B.B.V.B.B.V.B.B.B.B.B.B.B.B.B.B.B.B.B.B.B.B.B.B.B.B.B.B.B.B.B.B.V.V.V.C.C.C.C.V.V.B.B.B.B.B.B.B.B.B.B.",
"B.B.B.B.B.B.B.B.f.f.h.B.B.B.B.f.B.B.B.B.B.B.B.B.B.B.B.B.B.B.B.B.B.B.B.B.B.B.B.B.B.B.B.B.B.B.B.B.B.B.B.B.",
"f.f.d.d.d.d.d.f.f.d.d.f.d.d.f.f.f.h.B.B.B.h.f.d.f.d.f.f.f.f.h.f.f.f.f.d.d.f.f.B.B.B.B.B.B.h.f.h.f.B.B.f.",
"d.d.d.d.s.d.d.d.d.d.d.d.d.d.d.d.d.d.d.d.d.d.d.f.d.d.d.d.d.d.d.d.d.d.d.d.d.d.d.f.f.d.d.f.f.d.d.d.f.f.d.d.",
"s.s.s.s.s.s.s.s.d.s.s.d.d.s.s.d.d.d.s.s.s.s.s.d.s.s.s.s.s.s.s.d.s.s.s.s.s.d.d.d.d.d.d.d.d.d.d.d.d.d.s.s.",
"s.s.s.s.s.s.s.s.d.s.s.s.s.s.s.s.s.s.s.a.s.s.s.s.s.s.s.s.s.s.s.s.s.s.s.s.s.s.s.s.s.s.s.s.d.d.d.s.s.s.s.s.",
"s.s.a.s.a.s.s.s.s.s.s.s.a.p.s.s.p.a.s.p.p.p.p.p.p.p.p.s.s.s.s.s.s.s.s.s.s.s.s.s.s.s.s.s.s.s.s.s.s.s.s.s.",
"s.a.p.a.a.s.s.s.s.s.p.p.p.p.p.a.p.p.a.p.p.p.p.p.p.p.p.p.a.a.p.p.a.s.s.s.s.p.p.p.p.p.a.a.s.s.a.s.s.s.s.s.",
"a.a.p.p.a.a.a.p.p.p.p.p.p.p.p.p.p.p.p.p.p.p.p.p.p.u.u.p.p.p.p.p.p.p.p.p.p.p.p.p.p.p.p.a.a.s.s.a.s.s.s.s.",
"p.a.p.p.p.p.p.p.p.p.p.u.u.i.p.i.i.p.i.u.u.u.u.u.u.u.u.u.p.i.u.i.p.p.i.i.p.p.p.i.p.p.p.a.a.a.a.a.s.s.a.a."
};
